<svg width="16" height="12" viewBox="0 0 16 12" fill="none" xmlns="http://www.w3.org/2000/svg">
<mask id="mask0" mask-type="alpha" maskUnits="userSpaceOnUse" x="0" y="0" width="16" height="12">
<path d="M4 11.6131C3.07956 11.6131 2.3334 10.891 2.3334 10.0003C2.3334 9.10951 3.07956 8.38742 4 8.38742C4.92044 8.38742 5.6666 9.10951 5.6666 10.0003C5.6666 10.891 4.92044 11.6131 4 11.6131ZM16 9.03271V10.3229H13.6328C13.478 11.059 12.806 11.6133 12 11.6133C11.0794 11.6133 10.3334 10.8914 10.3334 10.0005C10.3334 9.10935 11.0794 8.38742 12 8.38742C12.543 8.38742 13.021 8.64329 13.3256 9.03271H16ZM8 2.58077V9.03271H9.3334V10.3229H6.6666V10.0005C6.6666 8.57652 5.4702 7.41948 4 7.41948C2.5292 7.41948 1.3334 8.57652 1.3334 10.0005V10.3229H0V6.45174L2.6666 5.80664L4 2.58077H8ZM6.6666 0H16V7.74232H9.3334V1.29039H6.6666V0Z" fill="white"/>
</mask>
<g mask="url(#mask0)">
<path d="M4 11.6131C3.07956 11.6131 2.3334 10.891 2.3334 10.0003C2.3334 9.10951 3.07956 8.38742 4 8.38742C4.92044 8.38742 5.6666 9.10951 5.6666 10.0003C5.6666 10.891 4.92044 11.6131 4 11.6131ZM16 9.03271V10.3229H13.6328C13.478 11.059 12.806 11.6133 12 11.6133C11.0794 11.6133 10.3334 10.8914 10.3334 10.0005C10.3334 9.10935 11.0794 8.38742 12 8.38742C12.543 8.38742 13.021 8.64329 13.3256 9.03271H16ZM8 2.58077V9.03271H9.3334V10.3229H6.6666V10.0005C6.6666 8.57652 5.4702 7.41948 4 7.41948C2.5292 7.41948 1.3334 8.57652 1.3334 10.0005V10.3229H0V6.45174L2.6666 5.80664L4 2.58077H8ZM6.6666 0H16V7.74232H9.3334V1.29039H6.6666V0Z" fill="black"/>
<path d="M16 -2H0V14H16V-2Z" fill="#2F2F2F"/>
</g>
</svg>
