<svg width="12" height="16" viewBox="0 0 12 16" fill="none" xmlns="http://www.w3.org/2000/svg">
<mask id="mask0" mask-type="alpha" maskUnits="userSpaceOnUse" x="0" y="0" width="12" height="16">
<path d="M8.66669 6.66666C9.02031 6.66666 9.35945 6.80714 9.6095 7.05719C9.85954 7.30724 10 7.64637 10 8V9.33333H0.666687V8C0.666687 7.26333 1.26402 6.66733 2.00002 6.66733H4.00002V1.334C4.00002 0.980375 4.1405 0.641237 4.39054 0.391188C4.64059 0.14114 4.97973 0.000663757 5.33335 0.000663757C5.68698 0.000663757 6.02611 0.14114 6.27616 0.391188C6.52621 0.641237 6.66669 0.980375 6.66669 1.334V6.66666H8.66669ZM0.666687 16V10.3333H10V12.78C9.99921 13.3781 10.1166 13.9704 10.3454 14.523C10.5742 15.0756 10.91 15.5776 11.3334 16H0.666687Z" fill="black"/>
</mask>
<g mask="url(#mask0)">
<path d="M8.66669 6.66666C9.02031 6.66666 9.35945 6.80714 9.6095 7.05719C9.85954 7.30724 10 7.64637 10 8V9.33333H0.666687V8C0.666687 7.26333 1.26402 6.66733 2.00002 6.66733H4.00002V1.334C4.00002 0.980375 4.1405 0.641237 4.39054 0.391188C4.64059 0.14114 4.97973 0.000663757 5.33335 0.000663757C5.68698 0.000663757 6.02611 0.14114 6.27616 0.391188C6.52621 0.641237 6.66669 0.980375 6.66669 1.334V6.66666H8.66669ZM0.666687 16V10.3333H10V12.78C9.99921 13.3781 10.1166 13.9704 10.3454 14.523C10.5742 15.0756 10.91 15.5776 11.3334 16H0.666687Z" fill="black"/>
<path fill-rule="evenodd" clip-rule="evenodd" d="M-2 0H14V16H-2V0Z" fill="black"/>
</g>
</svg>
