<svg width="16" height="14" viewBox="0 0 16 14" fill="none" xmlns="http://www.w3.org/2000/svg">
<mask id="mask0" mask-type="alpha" maskUnits="userSpaceOnUse" x="0" y="0" width="16" height="14">
<path d="M12 0.33333C11.4746 0.332809 10.9542 0.436075 10.4688 0.6372C9.98334 0.838325 9.54242 1.13335 9.17132 1.50533L7.99932 2.67666L6.82799 1.50533C6.07452 0.771947 5.06257 0.364734 4.01113 0.371806C2.95969 0.378879 1.95332 0.799669 1.20978 1.54312C0.466239 2.28658 0.0453306 3.2929 0.038134 4.34434C0.0309374 5.39578 0.438031 6.40777 1.17133 7.16133L7.05733 13.2773C7.57533 13.7953 8.42399 13.7953 8.94333 13.2773L14.828 7.16133C15.3872 6.60192 15.7681 5.88927 15.9223 5.11346C16.0766 4.33765 15.9974 3.53351 15.6947 2.80271C15.392 2.07191 14.8795 1.44726 14.2218 1.00772C13.5642 0.568187 12.791 0.333499 12 0.33333Z" fill="black"/>
</mask>
<g mask="url(#mask0)">
<path d="M12 0.33333C11.4746 0.332809 10.9542 0.436075 10.4688 0.6372C9.98334 0.838325 9.54242 1.13335 9.17132 1.50533L7.99932 2.67666L6.82799 1.50533C6.07452 0.771947 5.06257 0.364734 4.01113 0.371806C2.95969 0.378879 1.95332 0.799669 1.20978 1.54312C0.466239 2.28658 0.0453306 3.2929 0.038134 4.34434C0.0309374 5.39578 0.438031 6.40777 1.17133 7.16133L7.05733 13.2773C7.57533 13.7953 8.42399 13.7953 8.94333 13.2773L14.828 7.16133C15.3872 6.60192 15.7681 5.88927 15.9223 5.11346C16.0766 4.33765 15.9974 3.53351 15.6947 2.80271C15.392 2.07191 14.8795 1.44726 14.2218 1.00772C13.5642 0.568187 12.791 0.333499 12 0.33333Z" fill="black"/>
<path fill-rule="evenodd" clip-rule="evenodd" d="M0 -1H16V15H0V-1Z" fill="black"/>
</g>
</svg>
