<svg width="16" height="16" viewBox="0 0 16 16" fill="none" xmlns="http://www.w3.org/2000/svg">
<path d="M5.33333 16C6.06971 16 6.66667 15.403 6.66667 14.6667C6.66667 13.9303 6.06971 13.3333 5.33333 13.3333C4.59695 13.3333 4 13.9303 4 14.6667C4 15.403 4.59695 16 5.33333 16Z" fill="#2F2F2F"/>
<path d="M11.3333 16C12.0697 16 12.6667 15.403 12.6667 14.6667C12.6667 13.9303 12.0697 13.3333 11.3333 13.3333C10.597 13.3333 10 13.9303 10 14.6667C10 15.403 10.597 16 11.3333 16Z" fill="#2F2F2F"/>
<path d="M16 2.66667H3.06667L2.86667 1.33333C2.73333 0.6 2.06667 0 1.33333 0H0V1.33333H1.53333L3.2 12C3.26667 12.3333 3.6 12.6667 4 12.6667H14.6667V11.3333H4.46667L4.26667 10H14.6667L16 2.66667Z" fill="#2F2F2F"/>
</svg>
